<mxfile host="app.diagrams.net" modified="2024-03-25T11:30:42.907Z" agent="Mozilla/5.0 (Windows NT 10.0; Win64; x64) AppleWebKit/537.36 (KHTML, like Gecko) Chrome/122.0.0.0 Safari/537.36" etag="mWpxVFFsJ661i8AxYvtz" version="24.0.7" type="device">
  <diagram name="Pagina-1" id="dRhcXz8oS_HXQejQhX38">
    <mxGraphModel dx="1969" dy="2078" grid="1" gridSize="10" guides="1" tooltips="1" connect="1" arrows="1" fold="1" page="1" pageScale="1" pageWidth="1920" pageHeight="1200" math="0" shadow="0">
      <root>
        <mxCell id="0" />
        <mxCell id="1" parent="0" />
        <mxCell id="vStvGhAySzdytfDFjWN4-25" value="&lt;font style=&quot;font-size: 24px;&quot;&gt;Modello&lt;/font&gt;" style="swimlane;fontStyle=1;align=center;verticalAlign=top;childLayout=stackLayout;horizontal=1;startSize=40;horizontalStack=0;resizeParent=1;resizeParentMax=0;resizeLast=0;collapsible=1;marginBottom=0;whiteSpace=wrap;html=1;" parent="1" vertex="1">
          <mxGeometry x="320" y="-1030" width="1040" height="700" as="geometry" />
        </mxCell>
        <mxCell id="vStvGhAySzdytfDFjWN4-26" value="&lt;font style=&quot;font-size: 18px;&quot;&gt;- InsiemeSensori : std::vector&amp;lt;Sensore*&amp;gt;&lt;/font&gt;" style="text;strokeColor=none;fillColor=none;align=left;verticalAlign=top;spacingLeft=4;spacingRight=4;overflow=hidden;rotatable=0;points=[[0,0.5],[1,0.5]];portConstraint=eastwest;whiteSpace=wrap;html=1;" parent="vStvGhAySzdytfDFjWN4-25" vertex="1">
          <mxGeometry y="40" width="1040" height="40" as="geometry" />
        </mxCell>
        <mxCell id="vStvGhAySzdytfDFjWN4-27" value="" style="line;strokeWidth=1;fillColor=none;align=left;verticalAlign=middle;spacingTop=-1;spacingLeft=3;spacingRight=3;rotatable=0;labelPosition=right;points=[];portConstraint=eastwest;strokeColor=inherit;" parent="vStvGhAySzdytfDFjWN4-25" vertex="1">
          <mxGeometry y="80" width="1040" height="8" as="geometry" />
        </mxCell>
        <mxCell id="vStvGhAySzdytfDFjWN4-28" value="&lt;font style=&quot;font-size: 18px;&quot;&gt;+modello()&lt;br&gt;&lt;br&gt;+getInsiemeSens() std::vector&amp;lt;Sensore*&amp;gt;&lt;br&gt;+creaSensDaJson(const QString&amp;amp;, const QJsonObject&amp;amp;) Sensore*&lt;br&gt;+daJsonAdArray(const QJsonArray&amp;amp;) std::vector&amp;lt;double&amp;gt;&lt;br&gt;&lt;br&gt;+aggiungiSens(Sensore*) void&lt;br&gt;+eliminaSens(Sensore*) void&lt;br&gt;+apriSens(QString) void&lt;br&gt;+salvaSens(QString) int&lt;br&gt;&lt;/font&gt;&lt;div&gt;&lt;font style=&quot;font-size: 18px;&quot;&gt;+creaSensGas(const QString&amp;amp;, QLineEdit*, QLineEdit* , QLineEdit* , QLineEdit*, QLineEdit* , QLineEdit*) void&lt;/font&gt;&lt;/div&gt;&lt;div&gt;&lt;span style=&quot;background-color: initial;&quot;&gt;&lt;font style=&quot;font-size: 18px;&quot;&gt;+creaSensMotore(const QString&amp;amp;, QLineEdit*, QLineEdit*, QLineEdit*, QLineEdit*, QLineEdit*, QLineEdit*) void&lt;/font&gt;&lt;/span&gt;&lt;/div&gt;&lt;div&gt;&lt;font style=&quot;font-size: 18px;&quot;&gt;+creaSensPneumatico(const QString&amp;amp;, QLineEdit*, QLineEdit*, QLineEdit*, QLineEdit*, QLineEdit*, QLineEdit*, QLineEdit*) void&lt;/font&gt;&lt;/div&gt;&lt;div&gt;&lt;font style=&quot;font-size: 18px;&quot;&gt;+creaSensBatteria(const QString&amp;amp;, QLineEdit*, QLineEdit*, QLineEdit*, QLineEdit*, QLineEdit*, QLineEdit*) void&lt;/font&gt;&lt;/div&gt;&lt;div&gt;&lt;font style=&quot;font-size: 18px;&quot;&gt;+creaSensConsumo(const QString&amp;amp;, QLineEdit*, QLineEdit*, QLineEdit*, QLineEdit*, QLineEdit*, QLineEdit*) void&lt;/font&gt;&lt;/div&gt;&lt;div&gt;&lt;font style=&quot;font-size: 18px;&quot;&gt;+aggiornaSens(Sensore*, QLineEdit *, QLineEdit *, QLineEdit *, QLineEdit *, QLineEdit *) void&lt;/font&gt;&lt;/div&gt;&lt;div&gt;&lt;font style=&quot;font-size: 18px;&quot;&gt;&lt;br&gt;&lt;/font&gt;&lt;/div&gt;&lt;div&gt;&lt;div&gt;&lt;font style=&quot;font-size: 18px;&quot;&gt;+modificaSensorePneumatico(SensorePneumatico*,QLineEdit *, QLineEdit *) void&lt;/font&gt;&lt;/div&gt;&lt;div&gt;&lt;font style=&quot;font-size: 18px;&quot;&gt;+modificaSensoreGas(SensoreGas*, QLineEdit *) void&lt;/font&gt;&lt;/div&gt;&lt;div&gt;&lt;font style=&quot;font-size: 18px;&quot;&gt;+modificaSensoreMotore(SensoreMotore*,QLineEdit *) void&lt;/font&gt;&lt;/div&gt;&lt;div&gt;&lt;font style=&quot;font-size: 18px;&quot;&gt;+modificaSensoreBatteria(SensoreBatteria*,QLineEdit *) void&lt;/font&gt;&lt;/div&gt;&lt;div&gt;&lt;font style=&quot;font-size: 18px;&quot;&gt;+m&lt;span style=&quot;background-color: initial;&quot;&gt;odificaSensoreConsumo(SensoreConsumo*,QLineEdit *) void&lt;/span&gt;&lt;/font&gt;&lt;/div&gt;&lt;/div&gt;&lt;div&gt;&lt;/div&gt;&lt;font style=&quot;font-size: 18px;&quot;&gt;+pulisciInsieme() void&lt;/font&gt;" style="text;strokeColor=none;fillColor=none;align=left;verticalAlign=top;spacingLeft=4;spacingRight=4;overflow=hidden;rotatable=0;points=[[0,0.5],[1,0.5]];portConstraint=eastwest;whiteSpace=wrap;html=1;" parent="vStvGhAySzdytfDFjWN4-25" vertex="1">
          <mxGeometry y="88" width="1040" height="612" as="geometry" />
        </mxCell>
      </root>
    </mxGraphModel>
  </diagram>
</mxfile>
